<?xml version="1.0" encoding="utf-8"?>
<!-- Generator: Adobe Illustrator 16.0.0, SVG Export Plug-In . SVG Version: 6.00 Build 0)  -->
<!DOCTYPE svg PUBLIC "-//W3C//DTD SVG 1.1//EN" "http://www.w3.org/Graphics/SVG/1.1/DTD/svg11.dtd">
<svg version="1.1" id="Layer_1" xmlns="http://www.w3.org/2000/svg" xmlns:xlink="http://www.w3.org/1999/xlink" x="0px" y="0px"
	 width="595.28px" height="425.2px" viewBox="0 0 595.28 425.2" enable-background="new 0 0 595.28 425.2" xml:space="preserve">
<g>
	<g>
		<path fill="#FFFFFE" d="M186.014,36.56c-8.507,1.007-16.13,5.954-20.474,13.484l-19.958,34.594
			c10.909,7.731,19.022,18.895,22.993,31.676l10.062-2.021c0.459-0.088,0.94,0.079,1.232,0.441c0.289,0.368,0.36,0.867,0.177,1.3
			l-8.784,20.367c0,0.011,0.006,0.023,0.006,0.033l-0.837,1.908l-4.332,10.039c-0.161,0.377-0.502,0.658-0.915,0.735
			c-0.375,0.07-0.754-0.028-1.042-0.27c-0.034-0.021-0.056-0.048-0.09-0.073l-24.681-24.605c-0.335-0.327-0.453-0.81-0.32-1.256
			c0.134-0.442,0.503-0.774,0.959-0.869l7.49-1.503c-0.23-0.884-0.49-1.573-0.658-1.984c-0.059-0.127-0.108-0.254-0.167-0.382
			c-0.015-0.026-0.028-0.048-0.028-0.048c-2.631-5.864-6.661-11.022-11.728-15.002l-68.828,119.3
			c-4.883,8.462-4.877,18.887,0.006,27.348c0.434,0.754,0.915,1.471,1.412,2.17l79.776-53.775
			c-12.327-8.136-21.299-20.536-25.199-34.722l-10.126,1.686c-0.462,0.074-0.931-0.108-1.216-0.481
			c-0.279-0.372-0.335-0.874-0.133-1.303l9.444-20.069c0-0.008-0.003-0.023,0-0.031l0.894-1.879l4.66-9.891
			c0.174-0.374,0.524-0.641,0.943-0.707c0.369-0.055,0.748,0.056,1.033,0.305c0.028,0.021,0.049,0.05,0.083,0.073l23.865,25.405
			c0.313,0.34,0.422,0.825,0.276,1.266c-0.152,0.44-0.53,0.763-0.99,0.841l-7.53,1.253c0.195,0.889,0.435,1.587,0.589,2.004
			c0.053,0.13,0.1,0.259,0.149,0.383c0.019,0.033,0.028,0.053,0.028,0.053c4.173,10.176,12.503,18.433,23.266,22.308l18.693-12.6
			V36.56z"/>
		<path fill="#FFFFFE" d="M188.741,176.792l-117.615,79.28c4.995,4.661,11.628,7.368,18.656,7.368h41.335
			c-0.046-0.754-0.074-1.514-0.074-2.276c0-2.255,0.22-4.467,0.624-6.632l-11.734-4.668c-1.303-0.52-1.939-1.999-1.421-3.302
			c0.519-1.305,1.998-1.94,3.301-1.422l11.142,4.432c1.21-3.602,2.966-7.03,5.203-10.227l-6.214-4.721
			c-1.12-0.848-1.337-2.442-0.49-3.56c0.85-1.12,2.445-1.337,3.562-0.489l6.295,4.779c2.935-3.332,6.425-6.34,10.363-8.953
			l-6.621-8.282c-0.875-1.097-0.698-2.696,0.397-3.573c1.099-0.877,2.7-0.698,3.574,0.398l7.043,8.811
			c3.754-2.049,7.828-3.76,12.153-5.085l-2.535-6.899c-0.484-1.318,0.192-2.778,1.511-3.262c1.319-0.484,2.777,0.191,3.261,1.509
			l2.696,7.334c4.099-0.934,8.383-1.531,12.798-1.744v-12.306c0-1.404,1.139-2.541,2.544-2.541c1.402,0,2.541,1.137,2.541,2.541
			v12.235c4.434,0.08,8.749,0.536,12.888,1.346l2.522-6.866c0.487-1.318,1.948-1.992,3.264-1.509
			c1.319,0.484,1.995,1.944,1.508,3.262l-2.305,6.28c4.48,1.218,8.712,2.847,12.622,4.829l6.345-7.936
			c0.875-1.096,2.476-1.276,3.574-0.398c1.095,0.877,1.275,2.477,0.397,3.573l-5.82,7.283c4.145,2.565,7.834,5.557,10.958,8.894
			l4.898-3.721c1.117-0.848,2.713-0.631,3.562,0.489c0.847,1.117,0.63,2.712-0.487,3.56l-4.704,3.572
			c2.455,3.28,4.4,6.818,5.75,10.555l9.081-3.611c1.304-0.519,2.78,0.117,3.302,1.422c0.518,1.303-0.119,2.782-1.425,3.302
			l-9.55,3.799c0.518,2.441,0.801,4.944,0.801,7.501c0,0.763-0.025,1.522-0.074,2.276h39.445c0,0,0.013-0.001,0.021,0
			c7.236,0,13.807-2.813,18.699-7.4L188.741,176.792z"/>
		<path fill="#FFFFFE" d="M310.793,221.578L280.9,169.182c-14.61-3.528-34.652-12.359-50.786-34.093c0,0,2.591,7.5,10.772,16.866
			c-2.799,0.878-8.474,2.209-15.799,1.581c0,0,8.346,3.773,19.137,2.006c3.443,3.486,7.66,7.114,12.771,10.64
			c-3.804,1.598-11.694,4.258-22.233,4.312c0,0,13.189,4.6,28.966-0.065c6.587,3.807,14.362,7.35,23.562,10.255
			c-4.221,5.408-10.031,9.668-17.031,11.989c-11.863,3.926-24.305,1.359-33.479-5.763c-39.347-28.429-26.989-99.878-26.989-99.878
			c2.333,10.579,15.131,26.301,40.023,30.976c0.723,0.135,1.43,0.276,2.129,0.417l-38.954-68.268
			c-4.496-7.877-12.575-12.964-21.522-13.696v135.597l118.454,79.845c3.171-4.467,5.042-9.919,5.042-15.812
			C314.961,230.758,313.434,225.783,310.793,221.578z"/>
	</g>
	<g>
		<text transform="matrix(1 0 0 1 57.4873 331.8018)" fill="#FFFFFE" font-family="'Aller-Bold'" font-size="77.6381">FASERT</text>
		<text transform="matrix(1 0 0 1 61.2666 356.9082)"><tspan x="0" y="0" fill="#FFFFFE" font-family="'Aller'" font-size="17.1435">FONDO DE ACCESO SOSTENIBLE</tspan><tspan x="254.698" y="0" fill="#FFFFFE" font-family="'Aller'" font-size="17.1435"> </tspan><tspan x="0" y="17.791" fill="#FFFFFE" font-family="'Aller'" font-size="17.1435">A ENERGÍA RENOVABLE TÉRMICA</tspan></text>
	</g>
</g>
</svg>
